# xmcd
#
# Track frame offsets: 
#        150
#        14221
#        26648
#        44841
#        65190
#        77487
#        100451
#        122868
#        141073
#        154821
#        174347
#        190052
#
# Disc length: 2708 seconds
#
# Revision: 0
# Processed by: cddbd v1.4PL0 Copyright (c) Steve Scherf et al.
# Submitted via: ExactAudioCopy v0.95a3
#
DISCID=ac0a920c
DTITLE=The Waltzing Tunas - Networthy
DYEAR=1993
DGENRE=Blues
TTITLE0=Eraser Head
TTITLE1="Ouch"
TTITLE2=Part Time Lover
TTITLE3=Strain Relating
TTITLE4=Just Another Night
TTITLE5=Slippin Out
TTITLE6=Let Me Down
TTITLE7=Wah!
TTITLE8=Slice-O-Pie
TTITLE9=Carry Me Away
TTITLE10=She Wants Love
TTITLE11=Gorpers On Maneuvers
EXTD=
EXTT0=
EXTT1=
EXTT2=
EXTT3=
EXTT4=
EXTT5=
EXTT6=
EXTT7=
EXTT8=
EXTT9=
EXTT10=
EXTT11=
PLAYORDER=
